#!OML:ASF X:\für Bonn\!DataBase\2005_08_12_Daniel\c3d\Daniel.ASF
:FULLY-SPECIFIED
:DEGREES
81
root 13.5443 19.4951 0.49172 -13.8926 80.5258 -381.534
lowerback 10.7862 0.812514 5.67803
upperback -3.13388 1.68987 -2.58943
thorax -9.21129 0.40742 -6.32363
lowerneck 6.61138 2.99869 -10.24
upperneck 9.45829 3.60522 3.06745
head 1.65629 1.62861 2.74844
rclavicle 4.51241e-014 2.06736e-014
rhumerus 21.4367 36.8343 -79.2324
rradius 85.5958
rwrist -3.52706
rhand -28.5129 29.5097
rfingers 7.12502
rthumb -1.88132 -0.46176
lclavicle 4.51241e-014 2.06736e-014
lhumerus 7.3341 -27.6928 75.4481
lradius 109.233
lwrist 18.3537
lhand -11.9898 -17.9596
lfingers 7.12502
lthumb 14.0668 11.5443
rfemur -4.47242 6.16754 24.9872
rtibia 44.3492
rfoot 21.6235 -3.9412
rtoes -12.5624
lfemur -8.54424 4.174 -18.2277
ltibia 62.8159
lfoot 9.53261 -2.12486
ltoes -9.9623
82
root 13.7852 19.6253 0.498201 -14.2212 80.5287 -381.23
lowerback 10.8762 0.822837 5.74069
upperback -3.04417 1.71447 -2.60277
thorax -9.15982 0.419585 -6.37926
lowerneck 7.46661 3.06628 -10.0311
upperneck 9.53805 3.64306 2.94519
head 1.53841 1.65652 2.65123
rclavicle 1.81888e-014 2.38542e-015
rhumerus 22.457 36.3989 -78.5099
rradius 86.3277
rwrist -3.42507
rhand -27.7567 29.8515
rfingers 7.12502
rthumb -1.15096 -0.125114
lclavicle 1.81888e-014 2.38542e-015
lhumerus 9.36652 -27.9556 74.3807
lradius 109.129
lwrist 18.2867
lhand -12.7734 -18.072
lfingers 7.12502
lthumb 13.3116 11.4828
rfemur -4.80494 5.64707 25.0545
rtibia 46.9071
rfoot 21.9714 -2.39597
rtoes -13.041
lfemur -8.56682 4.1791 -18.2534
ltibia 64.8065
lfoot 10.2715 -2.92472
ltoes -9.79118
83
root 14.02 19.7435 0.503684 -14.5631 80.5309 -380.926
lowerback 11.0254 0.818813 5.79435
upperback -2.89792 1.72138 -2.60671
thorax -9.08374 0.426527 -6.41693
lowerneck 8.31442 3.13674 -9.88533
upperneck 9.49832 3.6765 2.86566
head 1.38271 1.68247 2.57912
rclavicle -7.7526e-015 1.51076e-014
rhumerus 23.3013 35.933 -77.9273
rradius 87.1039
rwrist -3.56901
rhand -26.9439 30.0303
rfingers 7.12502
rthumb -0.365932 0.05085
lclavicle -7.7526e-015 1.51076e-014
lhumerus 11.4313 -28.1561 73.3182
lradius 108.73
lwrist 18.2887
lhand -13.4104 -18.0395
lfingers 7.12502
lthumb 12.6976 11.5545
rfemur -5.20705 5.07493 25.1076
rtibia 49.4322
rfoot 22.0428 -0.887119
rtoes -13.4467
lfemur -8.58176 4.18114 -18.2831
ltibia 66.5862
lfoot 10.8152 -3.64024
ltoes -9.73361
84
root 14.2487 19.851 0.508687 -14.9871 80.554 -380.664
lowerback 11.2903 0.800372 5.8349
upperback -2.69807 1.71293 -2.60582
thorax -9.01886 0.427831 -6.44229
lowerneck 9.19019 3.18416 -9.69737
upperneck 9.30608 3.67886 2.71569
head 1.17792 1.69575 2.47431
rclavicle 8.24956e-015 -3.18055e-015
rhumerus 23.8705 35.4041 -77.6154
rradius 87.885
rwrist -3.82732
rhand -26.1193 29.9624
rfingers 7.12502
rthumb 0.43055 -0.0168663
lclavicle 8.24956e-015 -3.18055e-015
lhumerus 13.5251 -28.357 72.2391
lradius 108.105
lwrist 18.466
lhand -13.8589 -17.9239
lfingers 7.12502
lthumb 12.2651 11.6965
rfemur -5.68121 4.37083 25.1205
rtibia 51.8864
rfoot 22.0368 0.561776
rtoes -12.9724
lfemur -8.56063 4.22019 -18.2827
ltibia 68.1703
lfoot 11.0385 -4.31117
ltoes -9.90895
85
root 14.4748 19.9542 0.513328 -15.4243 80.5846 -380.395
lowerback 11.6431 0.780731 5.85492
upperback -2.44492 1.70434 -2.60433
thorax -8.9468 0.432163 -6.4572
lowerneck 9.92859 3.20756 -9.49735
upperneck 9.13607 3.66471 2.57894
head 1.00605 1.70042 2.37663
rclavicle 9.93923e-016 0
rhumerus 24.287 34.8372 -77.3954
rradius 88.5764
rwrist -4.19081
rhand -25.418 29.6613
rfingers 7.12502
rthumb 1.10786 -0.315569
lclavicle 9.93923e-016 0
lhumerus 15.5791 -28.5739 71.2231
lradius 107.304
lwrist 18.7343
lhand -14.0594 -17.8143
lfingers 7.12502
lthumb 12.0718 11.8175
rfemur -6.25675 3.54503 25.0875
rtibia 54.2807
rfoot 21.862 1.81361
rtoes -12.4205
lfemur -8.51659 4.31195 -18.257
ltibia 69.5093
lfoot 10.9406 -4.86853
ltoes -10.0198
86
root 14.702 20.0537 0.518908 -15.9757 80.6111 -380.262
lowerback 12.0588 0.742704 5.86169
upperback -2.18954 1.67508 -2.58026
thorax -8.91245 0.426493 -6.43865
lowerneck 10.5417 3.22193 -9.28606
upperneck 9.03012 3.65806 2.39351
head 0.877979 1.70801 2.2645
rclavicle 2.25621e-014 1.43125e-014
rhumerus 24.6611 34.3749 -77.2199
rradius 88.9301
rwrist -4.58828
rhand -24.8317 29.196
rfingers 7.12502
rthumb 1.67409 -0.777139
lclavicle 2.25621e-014 1.43125e-014
lhumerus 17.4269 -28.7563 70.2632
lradius 106.447
lwrist 18.9778
lhand -14.1428 -17.6505
lfingers 7.12502
lthumb 11.9914 11.986
rfemur -6.93032 2.62154 25.0264
rtibia 56.5391
rfoot 21.5836 2.73551
rtoes -11.8594
lfemur -8.50508 4.48836 -18.1678
ltibia 70.5982
lfoot 10.5893 -5.39257
ltoes -9.33021
87
root 14.9027 20.1485 0.524343 -16.446 80.6649 -380.05
lowerback 12.8299 0.693288 5.83726
upperback -1.96777 1.64405 -2.58643
thorax -9.12044 0.409068 -6.45173
lowerneck 11.0154 3.20066 -9.04181
upperneck 9.01325 3.62438 2.22634
head 0.804306 1.70171 2.15777
rclavicle -4.85035e-014 2.62396e-014
rhumerus 25.0702 33.9504 -77.0273
rradius 88.8449
rwrist -4.86853
rhand -24.6812 28.6842
rfingers 7.12502
rthumb 1.81945 -1.28779
lclavicle -4.85035e-014 2.62396e-014
lhumerus 19.0328 -28.9787 69.4623
lradius 105.558
lwrist 19.0868
lhand -14.0446 -17.5133
lfingers 7.12502
lthumb 12.0861 12.1176
rfemur -7.81638 1.64283 24.9344
rtibia 58.6856
rfoot 21.2749 3.4238
rtoes -11.6995
lfemur -8.67527 4.75223 -18.0442
ltibia 71.518
lfoot 9.79259 -5.84632
ltoes -9.60156
